<svg xmlns="http://www.w3.org/2000/svg" width="283.465" height="206.575"><g><path d="M59.887 184.41c-.641-1.037 2.601-4.559 4.197-4.559.998 0 1.357-.602 1.164-1.956-.206-1.449-.784-1.899-2.233-1.738-1.076.12-2.813.315-3.861.435-2.693.307-3.778-4.807-1.748-8.243 1.356-2.295 1.334-2.502-.456-4.292-1.563-1.563-2.106-1.693-3.217-.771-1.126.935-1.461.781-2.13-.976-.436-1.147-1.42-2.606-2.187-3.243-2.049-1.7-1.7-4.003.779-5.132 2.702-1.231 2.698-2.891-.019-8.415-1.176-2.39-2.141-5.421-2.146-6.736-.004-1.315-.35-2.39-.768-2.39-.418 0-1.001-1.203-1.295-2.673l-.535-2.673-2.533 1.804c-3.12 2.221-3.148 2.221-6.307-.028-1.735-1.235-2.486-2.438-2.307-3.694.275-1.93 1.797-2.189 5.698-.968 1.579.494 1.956.278 1.956-1.121 0-.953.587-2.22 1.304-2.815 1.728-1.434 1.661-4.023-.122-4.707-2.032-.78-4.842.242-6.625 2.409l-1.533 1.863-1.646-1.952c-.946-1.122-1.454-2.686-1.195-3.678.324-1.238-.129-1.965-1.602-2.571-5.445-2.242-7.255-5.207-8.093-13.255-.345-3.308-1.14-6.257-1.846-6.842-.682-.566-1.24-1.732-1.24-2.591 0-.859-.682-2.75-1.516-4.203l-1.516-2.641 3.272-3.351c3.161-3.237 3.409-4.545.863-4.545-.668 0-2.226-1.201-3.461-2.669-1.725-2.05-2.72-2.55-4.29-2.156-1.841.462-2.038.231-1.983-2.328.053-2.452.174-2.603.886-1.103.666 1.405.747 1.22.421-.96-.222-1.484-.009-3.093.474-3.576.591-.591.436-1.32-.474-2.23-1.014-1.014-1.082-1.461-.273-1.788.854-.345.852-.45-.008-.504-2.019-.127-1.104-1.631 1.557-2.558 2.224-.775 2.865-.664 4.036.705 1.359 1.587 1.474 1.584 4.744-.12 1.843-.961 3.351-2.146 3.351-2.635 0-.518-.543-.437-1.304.194-1.126.935-1.304.545-1.304-2.863 0-3.299-.391-4.232-2.39-5.698-1.904-1.396-2.172-1.974-1.315-2.842.86-.872 1.479-.71 3.098.811 1.113 1.045 2.562 1.901 3.22 1.901.797 0 .633-.434-.491-1.299-1.637-1.26-1.6-1.379 1.231-3.982 2.125-1.954 3.458-2.548 4.905-2.184 1.581.397 2.095.07 2.514-1.598.289-1.153.291-2.709.004-3.458-.35-.912.163-1.621 1.557-2.151 1.144-.435 2.6-1.418 3.237-2.185.636-.767 1.911-1.394 2.832-1.394.921 0 2.879-.622 4.35-1.383 2.529-1.308 9.334-2.234 16.577-2.257 2.997-.009 3.259-.208 3.259-2.472 0-1.747.536-2.632 1.847-3.048 1.864-.592 3.328.656 3.355 2.859.02 1.639 2.106 1.307 4.724-.752 3.44-2.706 2.751-5.373-1.568-6.071-1.857-.3-3.734-1.185-4.172-1.967-.438-.782-1.363-1.422-2.056-1.422-.693 0-1.261-.391-1.261-.869 0-.229 4.501-2.259 6.013-2.404 2.031-.194 2.536.74 4.503.484l2.019-.263 12.437-.788-1.922 5.36c-.616 1.717-1.027 3.765-1.537 4.383-1.739 2.104.68 3.252 3.273 1.553 2.096-1.373 2.448-1.382 4.39-.109 2.665 1.746 2.643 2.317-.216 5.715-2.467 2.932-2.467 2.945.329 11.623.483 1.499.2 1.601-3.011 1.087-4.313-.69-6.289-.035-6.289 2.083 0 2.098-3.237 4.302-6.317 4.302-2.386 0-6.72 3.306-6.72 5.125 0 .472-1.662.986-3.694 1.141l-3.694.282 2.39 1.211c1.543.782 2.39 1.906 2.39 3.172 0 1.079.387 2.091.861 2.251.888.299 2.857 7.112 3.891 13.465.472 2.897 1.085 3.82 3.09 4.651 2.852 1.181 5.194 4.305 5.194 6.928 0 1.182 1.025 2.272 3.042 3.234 2.539 1.211 3.042 1.91 3.042 4.226 0 2.27-.479 2.974-2.63 3.865-3.271 1.355-6.273 5.438-5.904 8.032.343 2.415 4.2 3.123 6.187 1.135 1.553-1.553 4.596-2.808 9.454-3.899 2.918-.656 3.652-.506 5.09 1.038 1.631 1.75 1.732 1.757 3.433.217 2.564-2.321 2.202-4.967-.924-6.746-1.7-.968-2.56-2.07-2.373-3.042.252-1.309 1.448-1.549 8.481-1.696 6.719-.141 8.62-.492 10.6-1.956 3.051-2.255 3.212-2.243 6.028.455l2.337 2.239 4.418-2.239c2.43-1.231 4.903-2.239 5.497-2.239.593 0 2.464-1.321 4.157-2.936 4.07-3.882 11.863-9.232 13.448-9.232.694 0 1.506-.396 1.805-.879.662-1.071 18.68-1.027 18.68.046 0 .951 5.037 8.443 6.13 9.119.885.547 1.197-1.201.898-5.026-.175-2.241.031-2.39 3.294-2.39 1.914 0 3.723.392 4.019.871.325.526 1.121.572 2.007.117.808-.415 1.957-.579 2.555-.364 1.367.49 1.376-.184.033-2.335-1.391-2.228-.236-3.281 1.7-1.549 1.499 1.341 3.067 1.829 5.22 1.625.631-.06 1.086-1.317 1.086-2.999 0-2.57.354-3.005 3.14-3.86 2.777-.852 3.527-.72 6.477 1.142 1.95 1.231 3.556 1.752 3.864 1.253.658-1.064 3.062-1.083 4.716-.037.687.435 1.329 1.939 1.426 3.343.097 1.404.638 3.414 1.201 4.466.924 1.727 1.469 1.858 5.6 1.342 3.647-.456 4.87-.278 6.024.876 2.095 2.095 1.794 3.567-1.16 5.669-1.434 1.021-2.607 2.612-2.607 3.536 0 .924.1 1.679.223 1.679s1.536-.377 3.141-.837c2.626-.753 3.176-.579 5.493 1.738 2.545 2.545 5.049 3.391 5.049 1.706 0-.478.636-.869 1.412-.869 1.106 0 1.299.566.891 2.607-.429 2.146-.237 2.607 1.089 2.607.886 0 2.076-.562 2.646-1.248 1.469-1.771 5.947-2.594 7.426-1.366.674.559 2.515.912 4.093.783 1.578-.128 3.748.325 4.824 1.008 2.188 1.388 2.494 2.223.869 2.37-4.82.436-9.053 1.438-9.778 2.314-.478.577-1.945 1.75-3.259 2.606-4.135 2.691-2.437 5.662 1.933 3.381 1.208-.63 2.807-1.148 3.554-1.151.747-.003 2.483-1.179 3.856-2.613 3.14-3.278 4.78-3.344 4.78-.194 0 3.264-4.112 7.676-6.799 7.295-3.467-.491-4.718.395-3.441 2.439 1.293 2.071 2.674 2.241 4.113.506 1.365-1.645 3.04-.926 4.303 1.847 1.249 2.74.799 3.325-1.579 2.053-2.696-1.443-2.296.616.83 4.273 2.493 2.917 3.415 6.117 1.762 6.117-.981 0-2.227 3.406-1.907 5.215.127.717.861 1.79 1.632 2.384 1.266.976 1.206 1.288-.63 3.242-1.472 1.566-2.592 2.021-4.069 1.65-1.367-.343-2.072-.123-2.141.669-.193 2.216.259 3.787 1.485 5.16.674.755 1.225 2.808 1.225 4.563 0 3.132-.063 3.191-3.404 3.191-1.937 0-3.571-.468-3.792-1.086-.213-.598-.676-.819-1.029-.492-.353.327.196 1.492 1.218 2.59 1.023 1.098 2.014 2.786 2.203 3.751 1.082 5.526 1.182 7.392.422 7.862-1.328.821-4.309-.438-4.309-1.819 0-.685-.782-1.245-1.738-1.245-2.1 0-2.222.758-.342 2.133 1.238.905 1.134 1.194-.921 2.54-2.952 1.934-5.319 1.501-5.065-.926.452-4.325-13.049-2.059-15.547 2.609-.696 1.301-1.471 1.519-3.827 1.077-4.443-.834-9.843.907-10.825 3.49-.448 1.18-1.847 2.537-3.109 3.017-1.908.725-2.214 1.271-1.821 3.244.517 2.595-.81 3.123-2.555 5.286-1.817 2.253-5.259 2.671-12.493 2.709l-8.285.044-6.697-2.555.595-2.425c.327-1.334.809-3.599 1.069-5.033.261-1.434.957-2.999 1.547-3.477 1.35-1.093 3.687-8.279 4.439-13.649.627-4.471.362-4.703-6.131-5.388-1.541-.163-2.72-.844-2.882-1.665-.151-.764-1.571-2.191-3.155-3.17-1.88-1.162-4.001-3.912-6.104-7.915-1.773-3.374-3.829-6.367-4.568-6.65-1.92-.737-4.1.892-4.451 3.326-.398 2.762-1.713 4.257-3.744 4.257-2.33 0-2.86 2.078-1.183 4.638 1.027 1.568 1.26 3.097.838 5.502-.843 4.798-2.261 6.583-6.792 8.546-3.864 1.674-5.422 3.911-2.724 3.911 1.68 0 1.656.173-.542 3.899-2.261 3.832-.338-7.084.304-3.056l.814 5.108c1.001 3.613-3.805.698-5.672 2.201-1.107.892 3.247 6.913-1.619 7.016-4.122.025-3.198.242-6.25 2.724-9.537 7.753-6.689-1.105-8.719-1.869-1.011-.38-5.994-.393-5.994-.393-6.489-1.597-6.954 10.632-11.968 11.094-4.36.402-3.839-5.824-7.123-5.894-4.523-.097-14.225-.217-14.225-.349 0-.356-2.446-3.192-1.904-3.734 1.646-1.646.164-3.709-2.665-3.709-3.176 0-4.808-2.542-4.053-6.315.654-3.268-.683-4.984-3.882-4.984-1.347 0-2.691-.391-2.987-.869-.295-.478-1.515-.869-2.71-.869-1.227 0-1.939.378-1.636.869.295.478 1.341.869 2.323.869 1.61 0 1.731.366 1.229 3.713-.398 2.653-.186 4.204.743 5.432 1.577 2.086 1.736 5.77.312 7.195-.383.383-3.928 3.027-5.387 3.197-3.33.388-5.738-2.163-5.738-3.023 0-.478-.61-.869-1.355-.869s-1.113.391-.818.869c.295.478.146.869-.332.869s-1.052-.295-1.275-.656zm38.545-18.03c0-1.485-2.671-2.457-3.759-1.369-.568.568-.497 1.299.209 2.15 1.202 1.448 3.55.932 3.55-.781zm106.377-5.286c.778-2.028.641-5.406-.242-5.951-.922-.57-6.184 1.152-6.184 2.023 0 .336.489 1.664 1.086 2.95 1.217 2.62 4.48 3.218 5.339.978zm-56.836-2.588c0-1.278-1.856-1.715-2.89-.681-.786.786 1.162 3.001 2.119 2.409.424-.262.771-1.04.771-1.729zm74.944-9.115c2.799-3.189 2.381-4.762-1.615-6.081-4.013-1.324-5.204-.705-5.913 3.076-1.106 5.895 3.41 7.697 7.528 3.005zm-24.692-5.407c.258-1.362-.234-1.48-4.338-1.036-4.606.498-4.645.482-7.619-3.164-2.204-2.702-3.029-4.599-3.142-7.221-.199-4.643-.251-4.86-1.158-4.86-1.436 0-1.518 5.028-.153 9.352 1.681 5.325 3.158 7.162 5.759 7.162 1.108 0 2.27.412 2.581.915.311.503 2.189.797 4.172.652 2.63-.192 3.686-.679 3.898-1.8zm4.116-4.189c.896-1.449-1.119-3.111-2.318-1.912-1.003 1.003-.375 2.857.967 2.857.422 0 1.029-.425 1.351-.945zm-150.843-4.27c0-.478-.391-.869-.869-.869s-.869.391-.869.869.391.869.869.869.869-.391.869-.869zm7.588-17.817c-1.481-1.673-2.877-3.042-3.103-3.042-.225 0 .238.715 1.029 1.589.791.874 1.438 2.015 1.438 2.535 0 .856 1.245 1.712 2.751 1.891.318.038-.634-1.3-2.115-2.973zm122.891-1.71c-1.431-3.056-2.715-3.983-2.715-1.96 0 1.389 2.462 4.974 3.416 4.974.39 0 .075-1.356-.701-3.014zm-141.778.065c0-1.474-2.351-2.516-3.065-1.359-.283.457-.272 1.222.023 1.7.803 1.299 3.042 1.048 3.042-.342zm13.815-6.782c-.461-.862-1.216-1.568-1.678-1.568-1.074 0-1.055.312.181 3.026.701 1.538 1.226 1.906 1.678 1.174.362-.585.28-1.77-.181-2.632zm101.781-.699c0-.478-.172-.869-.383-.869-.211 0-.625.391-.92.869-.295.478-.123.869.383.869s.92-.391.92-.869zm-43.095-2.297c.301-.785.353-1.623.114-1.862-.692-.692-3.115 1.667-2.588 2.52.746 1.207 1.874.907 2.474-.657zm-61.202-4.605c0-.45-.391-1.06-.869-1.355-.478-.295-.869.073-.869.818s.391 1.355.869 1.355.869-.368.869-.818zm66.719-2.595c.83-.443 2.194-1.018 3.03-1.276 1.715-.531 1.867-1.244.665-3.133-.684-1.075-1.137-1.113-2.582-.217-.964.598-2.736 1.086-3.938 1.086-1.539 0-2.185.471-2.185 1.593 0 2.773 2.003 3.551 5.009 1.947zm-69.625-11.068c-1.179-2.23-1.367-2.309-1.948-.82-.442 1.132-.143 2.012.956 2.816 2.2 1.608 2.538.928.992-1.995zm130.671-1.981c0-.45-.391-1.06-.869-1.355-.478-.295-.869.073-.869.818s.391 1.355.869 1.355.869-.368.869-.818zm29.445-2.575c2.301-1.458.066-2.523-5.047-2.406-3.924.09-4.946.369-4.281 1.17.48.578 2.115 1.207 3.633 1.397 1.518.19 3.151.402 3.629.471.478.069 1.408-.216 2.067-.633zm-38.583-3.741c2.158-.577 3.924-1.359 3.924-1.738 0-1.033-11.052-1.225-12.068-.209-.611.611 1.806 2.997 3.036 2.997.652 0 2.95-.472 5.108-1.049zm-125.257-5.252c.795-2.968.689-3.259-1.19-3.259-1.242 0-1.738.579-1.738 2.028 0 3.53 2.078 4.404 2.929 1.231zm-14.726-3.156c.68-1.1-4.085-10.599-5.139-10.245-1.473.495-.992 3.657 1.13 7.433 1.986 3.534 3.086 4.306 4.009 2.813zm15.047-9.255c.114-2.643.811-5.97 1.547-7.395 1.007-1.947 1.11-3.02.413-4.321-2.202-4.114-4.464-.111-3.339 5.909.396 2.12.486 4.788.2 5.928-.45 1.795-.003 4.685.726 4.684.135 0 .338-2.163.452-4.805zm-9.334-17.023c0-1.323-.435-2.673-.966-3.002-1.165-.72-2.518 1.201-1.928 2.739.232.604-.437 1.957-1.487 3.006-1.518 1.518-1.668 2.056-.732 2.635 1.739 1.074 5.114-2.475 5.114-5.378zm16.195-6.853c2.624 0 3.18-.394 4.286-3.042.699-1.673 1.852-3.042 2.563-3.042 1.67 0 1.651-1.227-.041-2.632-1.078-.895-1.728-.895-3.394-.004-1.133.606-2.432.873-2.885.593-.454-.28-1.26.445-1.792 1.612s-1.958 2.37-3.169 2.674c-2.314.581-2.548 1.059-1.656 3.385.307.8 1.101 1.212 1.809.94.694-.266 2.62-.485 4.278-.485zm25.447-3.477c1.87 0 3.066-.644 4.086-2.2 1.999-3.051 1.11-3.445-3.021-1.337-1.939.989-4.031 1.805-4.647 1.812-1.866.022-3.555 1.469-2.918 2.499.414.67 1.101.7 2.227.097.896-.479 2.818-.871 4.273-.871zm5.292 149.564c0-.439-.263-1.485-.585-2.324-.518-1.349-.383-1.332 1.166.146 1.727 1.649 1.833 2.976.237 2.976-.45 0-.818-.359-.818-.798zm93.433-.071c.295-.478.71-.869.92-.869.211 0 .383.391.383.869s-.414.869-.92.869-.679-.391-.383-.869zm6.692-20.164c-1.478-1.478-1.293-4.131.333-4.755.799-.306 2.126.222 3.163 1.259s1.565 2.364 1.259 3.163c-.624 1.626-3.276 1.812-4.754.333zm-69.941-78.164c-.826-.462-1.502-1.562-1.502-2.443s-.587-1.827-1.304-2.102c-.717-.275-1.304-1.295-1.304-2.266 0-.99.573-1.766 1.304-1.766 1.259 0 1.666.973 1.367 3.266-.078.601.853 1.471 2.07 1.934 1.217.463 2.212 1.414 2.212 2.115 0 1.776-1.074 2.252-2.843 1.262zm73.896-12.676c-1.835-.278-2.39-.842-2.39-2.426 0-2.69 1.039-3.246 4.765-2.546 2.063.387 3.057 1.051 3.057 2.041 0 1.462-1.655 3.671-2.564 3.423-.263-.072-1.554-.293-2.868-.492zm-84.815-15.541c-2.596-1.818-2.135-4.359 1.16-6.389 5.02-3.094 8.594.95 5.166 5.845-1.598 2.282-3.599 2.454-6.325.544zm-12.02-7.797c-.724-1.888 1.115-3.663 2.431-2.347 1.113 1.113.423 3.709-.985 3.709-.508 0-1.159-.613-1.446-1.362zm-62.634-31.848c-2.42-1.168-3.329-3.812-1.817-5.283 1.357-1.321 5.057-1.733 5.057-.564 0 .448.587.815 1.304.815 1.338 0 1.712 2.269.776 4.709-.601 1.567-2.503 1.682-5.32.323zm32.959-3.473c-2.002-2.002-1.192-3.422 1.787-3.135 3.251.313 3.59 1.29 1.037 2.985-1.385.919-2.021.953-2.825.149z" fill="#bfbfbf"/><path d="M67.143 183.379c0-.928.39-1.928.866-2.222.476-.294.77-1.769.652-3.277-.153-1.957.195-2.827 1.213-3.038 1.208-.251 1.408.507 1.304 4.957-.113 4.83-.281 5.254-2.079 5.26-1.359.005-1.956-.508-1.956-1.68zm27.938-2.795c-2.402-2.59-3.22-1.637-1.832-3.025 1.299-1.299-.398-5.253-2.545-5.935-.959-.304-1.967-1.256-2.239-2.115-.515-1.622-5.6-3.565-9.331-3.565-1.181 0-4.356-1.582-7.056-3.515-4.296-3.076-5.147-3.386-6.827-2.488-4.079 2.183-6.296 2.308-9.802.553l-3.436-1.72 2.784-2.487c3.015-2.694 3.568-4.873 1.443-5.688-1.584-.608-4.743-6.48-4.743-8.817 0-1.81 3.282-3.651 6.508-3.651 1.144 0 2.29-.339 2.546-.753.661-1.069-2.343-3.575-5.2-4.34-1.329-.356-2.838-1.409-3.353-2.34-.515-.931-1.055-1.878-1.2-2.103-.146-.225-.586.11-.978.745-1.057 1.71-4.31.352-4.913-2.051-.281-1.119-.079-2.841.449-3.827.819-1.529.343-2.659-3.238-7.686-3.263-4.582-4.749-5.957-6.678-6.182-1.592-.185-2.756.204-3.25 1.086-2.217 3.961-6.767-.725-6.767-6.969 0-2.728-2.009-8.218-5.29-14.459-1.233-2.344-.922-3.473 1.849-6.715 3.181-3.722 3.193-4.253.118-5.324-1.638-.571-2.968-2.02-3.999-4.357-.85-1.926-1.326-3.721-1.059-3.988.648-.648 7.563 2.14 9.403 3.791 1.92 1.723 4.563 1.151 4.881-1.056.139-.967-.741-4.005-1.956-6.752-2.614-5.911-2.707-7.07-.688-8.622 6.427-4.939 11.047-13.301 8.827-15.976-1.344-1.62 2.593-9.021 4.818-9.056.98-.015 2.542-.602 3.47-1.304 2.505-1.895 4.13-1.605 3.805.679-.215 1.51-.937 2.019-3.172 2.233-2.166.208-2.768.608-2.39 1.592.277.723.504 2.037.504 2.92 0 2.11 2.47 4.533 3.764 3.693.559-.363 4.116-.66 7.903-.66h6.887l.691-2.569c.506-1.884.318-2.981-.706-4.112-1.079-1.193-1.167-1.819-.388-2.758 1.439-1.733 5.962-2.447 7.887-1.245 1.275.796 1.943.762 3.05-.157 1.283-1.065 6.546-1.975 6.546-1.132 0 .192-2.542 1.502-5.649 2.911-5.787 2.624-6.158 3.004-4.889 5.006.543.856 1.841.995 4.984.531 6.223-.917 7.166-1.425 8.828-4.756 1.189-2.383 2.101-3.075 4.338-3.29 2.628-.253 2.956.017 4.563 3.766 2.182 5.091 2.187 5.054-.581 4.524-2.657-.508-7.275.875-8.552 2.561-.715.945-1.309.918-3.359-.152-3.277-1.712-3.271-1.713-7.071 1.307-3.523 2.799-2.127 3.756 1.762 1.208 1.175-.77 2.796-1.146 3.602-.836 1.193.458.666 1.28-2.818 4.402-3.367 3.017-4.963 3.848-7.451 3.878-4.161.051-5.227 2.37-2.127 4.628 1.764 1.285 2.089 2.089 1.677 4.148-.416 2.079.095 3.293 2.745 6.528 2.919 3.562 3.212 4.367 2.829 7.766-.488 4.328.402 5.651 3.803 5.651 4.537 0 6.872 4.965 3.365 7.155-2.671 1.668-2.159 3.829 1.086 4.583 1.554.361 3.475.587 4.269.502 2.541-.272 2.603 1.542.105 3.052-1.33.804-3.865 3.05-5.634 4.993-3.125 3.432-3.264 3.488-4.935 1.975-1.695-1.534-5.321-1.305-5.321.335 0 1.749 2.696 3.391 4.482 2.731 1.459-.54 2.517.048 5.278 2.933l3.453 3.608 2.953-1.338c1.624-.736 3.175-2.039 3.447-2.896.272-.857 1.2-1.558 2.063-1.558 1.158 0 1.714.91 2.125 3.477.364 2.279 1.009 3.477 1.871 3.477 1.85 0 3.151-3.863 2.169-6.445-.977-2.57 1.175-3.83 3.357-1.965 2.791 2.386 4.721 2.516 6.298.426.824-1.092 1.787-1.695 2.141-1.341.354.354-.988 2.041-2.983 3.749-1.995 1.707-3.627 3.519-3.627 4.025 0 1.341 9.591.054 11.331-1.52.775-.701 2.062-1.275 2.861-1.275.829 0 1.453-.684 1.453-1.593 0-2.188.923-2.92 2.272-1.801 1.555 1.291 2.943.228 2.943-2.255 0-1.139.391-2.312.869-2.607 1.429-.883.987-3.535-.869-5.215-2.056-1.861-2.205-3.311-.485-4.738 1.01-.838 1.631-.605 3.199 1.197 2.443 2.81 4.707 2.827 8.772.065 1.759-1.195 4.014-2.173 5.011-2.173.997 0 3.182-1.369 4.855-3.042 2.109-2.109 3.833-3.042 5.62-3.042 1.92 0 2.578-.407 2.578-1.591 0-.875.974-2.113 2.165-2.75 2.027-1.085 2.4-.927 5.827 2.467 3.852 3.814 4.03 3.847 11.894 2.215 1.798-.373 2.001-.171 1.552 1.548-.352 1.344.078 2.61 1.341 3.955 1.739 1.851 1.96 1.885 3.446.541 2.052-1.857 2.004-2.459-.456-5.789-2.408-3.259-3.432-5.809-2.333-5.809 1.13 0 4.378 4.795 4.378 6.463 0 1.905 2.067 2.579 4.278 1.396 1.079-.577 1.806-1.829 1.806-3.109 0-2.412 1.856-2.809 4.88-1.043 7.436 4.344 9.192 4.985 13.666 4.985 6.908 0 8.915-3.249 3.723-6.028-1.88-1.006-2.643-1.024-4.368-.101-1.149.615-2.518.854-3.042.53-1.655-1.023-1.032-2.885 1.149-3.432 1.156-.29 2.948-1.898 3.983-3.572 2.445-3.957 5.492-4.77 8.231-2.197 1.405 1.32 2.62 1.746 3.858 1.353 1.402-.445 1.69-.27 1.286.783-.337.877 1.062 3.087 3.961 6.26 5.629 6.159 5.697 8.451.264 8.844-4.17.302-4.612 1.374-1.956 4.75.956 1.215 1.738 2.754 1.738 3.42 0 2.925 4.779 4.575 5.77 1.992.679-1.77 6.899-1.78 7.577-.012.379.989 1.389 1.169 4.308.769 4.2-.576 7.962.827 7.243 2.7-.243.633.509 2.439 1.671 4.013 1.162 1.575 2.112 3.96 2.112 5.302 0 1.872.41 2.439 1.766 2.439.971 0 1.996.601 2.278 1.336.282.735 1.639 1.918 3.015 2.63 2.837 1.467 3.219 2.707.981 3.185-1.166.249-.862.675 1.304 1.824 1.554.825 2.825 1.746 2.825 2.047 0 .301-.978 1.829-2.173 3.396s-2.173 3.657-2.173 4.645c0 2.149-1.078 2.269-3.881.432-1.94-1.271-2.208-1.238-3.933.487-1.184 1.184-1.754 2.691-1.581 4.181.372 3.212 3.043 3.6 4.181.607.57-1.499 1.403-2.199 2.393-2.011 1.17.222 1.578 1.324 1.78 4.805.256 4.431.195 4.558-3.242 6.728-4.33 2.733-4.407 2.732-4.407-.068 0-1.957-.19-2.122-1.342-1.165-1.786 1.482-.879 5.775 1.831 8.668 2.334 2.492 1.891 3.806-1.753 5.191-1.881.715-3.167.7-5.002-.06-2.051-.85-2.736-.782-4.037.395-2.196 1.987-2.953 1.786-4.677-1.242l-1.508-2.649-3.055 2.438c-3.455 2.757-3.815 3.741-1.368 3.741 2.372 0 3.118 1.652 1.484 3.286-1.194 1.194-1.68 1.221-3.59.199-1.906-1.02-2.356-.997-3.285.167-.592.742-2.431 1.599-4.087 1.906-1.656.307-4.003 1.49-5.215 2.63-1.212 1.14-2.987 2.22-3.943 2.4-1.457.274-1.729.992-1.684 4.43.051 3.813-.103 4.111-2.173 4.206-1.225.057-2.769.027-3.432-.065-.78-.109-1.013.33-.662 1.246.317.825.185 1.193-.317.883-.473-.292-.859-.117-.859.389 0 .523-1.849.92-4.287.92-3.604 0-4.38-.293-4.872-1.842-.322-1.013-.089-2.767.516-3.899.984-1.839.852-2.288-1.248-4.233-1.948-1.805-2.189-2.474-1.413-3.923.514-.961 1.635-1.747 2.491-1.747.856 0 2.475-.978 3.597-2.173 1.357-1.445 2.979-2.173 4.839-2.173 3.158 0 3.853-1.086 3.853-6.02 0-3.258-1.993-6.148-4.239-6.148-.583 0-2.669.777-4.636 1.728-2.207 1.066-3.938 1.429-4.521.947-.52-.429-2.408-1.054-4.196-1.388-1.788-.334-5.384-2.135-7.992-4.003-3.691-2.643-5.354-4.64-7.51-9.018-1.523-3.093-3.304-6.068-3.958-6.611-1.622-1.346-6.313.618-7.299 3.056-.651 1.611-.748 1.521-.851-.79-.257-5.764-1.45-6.158-2.069-.685l-.607 5.369-3.656.265c-2.945.214-3.656.593-3.656 1.948 0 1.14.842 1.903 2.607 2.363 3.867 1.008 5.074 3.465 3.796 7.728-.57 1.901-1.542 3.877-2.161 4.391-1.316 1.092-2.939.331-2.939-1.378 0-.694-1.972-1.764-4.723-2.564-4.095-1.19-4.76-1.69-4.998-3.756-.33-2.867-1.633-2.932-3.05-.153-.57 1.119-1.8 2.64-2.732 3.379-.932.739-1.957 2.221-2.278 3.293-.459 1.533-.124 2.158 1.572 2.931 1.186.54 2.348 1.717 2.582 2.614.279 1.068 1.207 1.632 2.681 1.632 2.042 0 2.702.827 2.327 2.916-.073.409.33 1.302.896 1.984.795.958-4.054-3.189-4.918-.569-1.012 3.068-.941 3.692.749 6.557 1.028 1.742-10.699-2.907-10.972-2.466-.273.441 8.142 5.136 2.971 5.136-7.298 0-9.645-.292-10.485-1.304-.595-.717-1.864-1.304-2.82-1.304-1.447 0-1.557.219-.656 1.304.904 1.089.778 1.304-.763 1.304-1.015 0-1.747-.489-1.627-1.086.146-.732-.738-1.01-2.716-.851-1.79.144 1.514 4.939.917 4.161-1.563-2.036-5.273-2.567-6.618-.947-1.005 1.21-.906 1.471.716 1.896 3.033.793 2.161 2.033-1.378 1.959-1.793-.038-2.768-.267-2.167-.509s.903-.745.673-1.119c-.519-.84-4.922-1.427-5.568-.383-.93 1.504-3.551 2.039-5.722-.303zm14.215-4.209c-.295-.478-1.199-.863-2.007-.856-1.267.011-1.29.13-.166.856 1.702 1.1 2.853 1.1 2.173 0zm5.262-3.552c.815-1.318-3.258-7.841-4.72-7.56-1.373.264-2.141 4.893-1.22 7.358.421 1.126 5.267 1.29 5.94.202zm-18.252-1.738c.321-.52 1.276-.764 2.121-.543 1.253.328 1.637-.33 2.08-3.563.617-4.501.195-4.989-5.083-5.881-2.373-.401-4.331-1.519-6.163-3.519-3.136-3.424-3.493-3.513-4.742-1.18-.806 1.505-.372 2.309 3.083 5.715 2.211 2.18 4.58 5.303 5.264 6.94 1.271 3.043 2.402 3.71 3.44 2.031zm30.808-9.571c0-.846-.878-1.787-1.956-2.097-1.076-.309-2.64-.753-3.477-.986-1.057-.295-1.521.071-1.521 1.199 0 2.318 1.409 3.419 4.375 3.419 1.885 0 2.578-.413 2.578-1.535zm-47.633-4.857c1.341-1.285 2.438-2.83 2.438-3.433 0-.604.681-1.479 1.514-1.945 2.933-1.642.585-1.702-4.13-.105-4.228 1.431-4.78 1.894-4.853 4.065-.151 4.537 1.339 4.957 5.032 1.419zm27.922-2.262c-.266-.43-.858-.386-1.344.1-.478.478-.581 1.336-.228 1.907.487.788.81.764 1.344-.1.387-.626.489-1.484.228-1.907zm116.061-3.442c1.947-1.554 3.456-3.37 3.353-4.036-.306-1.986-4.44-4.533-8.17-5.033l-3.487-.468-.591 4.225c-.536 3.832-.382 4.407 1.655 6.181 1.235 1.076 2.573 1.956 2.973 1.956.4 0 2.32-1.271 4.267-2.825zm-109.822-3.259c.295-.478.123-.869-.383-.869s-.92.391-.92.869.172.869.383.869c.211 0 .625-.391.92-.869zm85.337-3.462c.589-1.187 1.708-2.624 2.487-3.194 1.576-1.153 1.422-3.867-.252-4.425-.595-.198-1.468.657-1.94 1.899-.923 2.429-3.913 3.966-7.714 3.966-3.364 0-7.952-6.067-7.952-10.517 0-4.621-.758-6.302-2.274-5.044-2.567 2.131-.739 12.519 2.93 16.647.744.837 2.246 1.521 3.339 1.521s2.241.412 2.552.915c.311.503 2.183.797 4.159.652 2.817-.206 3.825-.73 4.664-2.421zm-73.603 1.34c0-.211-.391-.625-.869-.92-.478-.295-.869-.123-.869.383s.391.92.869.92.869-.172.869-.383zm18.17-2.757c-1.263-1.522-2.069-.927-1.336.985.295.768.949 1.141 1.453.829.63-.389.593-.958-.118-1.814zm-50.673-1.839c-.883-.883-1.612.447-.888 1.62.548.886.752.887 1.047.004.201-.604.13-1.334-.159-1.623zm33.653-1.454c.543-1.416-.187-2.419-1.272-1.748-.987.61-.965 2.967.028 2.967.427 0 .987-.548 1.244-1.219zm29.483-1.606c.711-1.932-.307-3.259-2.499-3.259-2.119 0-2.125.022-.579 2.146 1.763 2.422 2.5 2.688 3.079 1.114zm-18.775-1.323c1.025-.826 2.157-2.476 2.516-3.668.536-1.779.436-1.995-.559-1.206-.666.528-2.287 1.217-3.602 1.531-2.271.542-3.248 2.866-1.811 4.304.853.853 1.393.703 3.456-.961zm63.74-5.868c-.605-.729-1.278-1.146-1.497-.927-.603.603.622 2.252 1.672 2.252.576 0 .51-.499-.175-1.325zm-118.677-4.85c-.636-1.029-4.724-1.006-4.724.027 0 .946 2.569 1.641 4.123 1.116.595-.201.865-.715.601-1.143zm6.501.455c.981-.981-.644-.854-2.968.231l-2.607 1.218 2.606-.543c1.433-.298 2.769-.706 2.97-.907zm-17.01-2.158c-1.443-.295-3.011-.776-3.485-1.069-.644-.398-.935 2.359-.362 3.433.04.075 1.512-.306 3.271-.846l3.199-.982zm37.561-.312c.956-.701 2.677-1.039 3.972-.782 2.614.52 4.244-1.175 1.97-2.048-.833-.32-2.636.071-4.037.875-1.392.799-3.063 1.453-3.713 1.453-.65 0-1.424.391-1.719.869-.802 1.298 1.596 1.049 3.528-.367zm79.475-.482c0-.467-.931-1.459-2.069-2.205s-2.995-3.101-4.127-5.235c-2.125-4.006-4.234-5.119-4.234-2.235 0 1.941 4.897 8.252 7.388 9.521 2.268 1.155 3.042 1.194 3.042.154zm-124.504-2.411c.199-.598-.425-1.38-1.388-1.738-4.406-1.639-9.845-12.326-11.832-23.248-2.327-12.789-2.289-12.676-4.511-13.521-2.661-1.012-3.609-3.376-1.864-4.651 1.011-.739 1.368-2.951 1.486-9.218.146-7.727.795-12.356 2.213-15.782.386-.932-.068-2.123-1.262-3.317-3.302-3.302-4.355-1.114-4.355 9.05 0 5.392-.382 9.227-.977 9.823-.653.653-.778 2.836-.377 6.586.478 4.463 1.046 5.995 2.78 7.504 1.786 1.553 1.986 2.128 1.109 3.185-.868 1.045-.715 1.77.805 3.826 2.258 3.054 2.278 3.327.403 5.4-1.395 1.541-1.369 1.654.499 2.142 1.485.388 1.858.969 1.511 2.353-.637 2.542 3.149 12.971 5.892 16.231 1.244 1.478 2.262 3.036 2.262 3.462 0 1.053 4.484 3.437 6.012 3.197.677-.107 1.395-.683 1.594-1.281zm60.867-2.689c.249-.748-.169-1.061-1.16-.869-.852.165-1.724.827-1.938 1.47-.249.748.169 1.061 1.16.869.852-.165 1.724-.827 1.938-1.47zm9.75-2.848c0-1.105-3.266-.938-3.971.204-.852 1.378 1.507 2.604 2.856 1.485.614-.509 1.116-1.269 1.116-1.689zm72.139 1.845c-1.717-1.11-4.597-1.11-3.911 0 .295.478 1.59.863 2.876.856 1.829-.01 2.055-.197 1.035-.856zm-64.183-3.548c.967-.517 2.799-1.114 4.071-1.326 1.273-.212 3.326-.788 4.563-1.279 1.237-.491 2.792-.774 3.456-.629.693.152 1.334-.569 1.505-1.691.286-1.876-1.369-2.726-2.706-1.39-.311.311-3.574 1.582-7.251 2.825-3.677 1.242-6.845 2.748-7.039 3.345-.435 1.336 1.058 1.4 3.401.146zm107.34-1.27c.283-.738.252-1.604-.069-1.925-.712-.712-3.309.828-3.78 2.242-.515 1.545 3.254 1.235 3.849-.317zm-75.471-6.398c2.53-1.354 2.483-3.076-.062-2.287-1.076.333-2.933.8-4.128 1.036-1.195.236-2.955.78-3.911 1.207-.956.427-3.107.907-4.78 1.066-2.885.274-2.936.334-.998 1.165 2.22.952 10.435-.342 13.88-2.186zm-137.169-.859c0-.427-.611-1.011-1.359-1.298-.747-.287-1.094-.949-.771-1.472.788-1.276-2.25-7.885-3.445-7.493-1.337.438-1.668 5.398-.504 7.572 1.263 2.36 6.079 4.492 6.079 2.692zm176.436-1.725c0-.419-.587-1.25-1.304-1.845-1.057-.877-1.304-.843-1.304.183 0 .696.261 1.526.579 1.845.825.825 2.028.717 2.028-.183zm-82.569-6.997c0-1.371-2.468-1.713-3.488-.483-1.494 1.8-.274 3.242 1.802 2.131.927-.496 1.686-1.238 1.686-1.648zm57.856.141c-.788-.788-3.211.652-2.644 1.571.389.63.958.593 1.814-.118.686-.569 1.059-1.223.829-1.453zm9.937-1.072c0-.478-1.369-.869-3.042-.869-1.673 0-3.042.391-3.042.869s1.369.869 3.042.869c1.673 0 3.042-.391 3.042-.869zm-46.499-3.477c.295-.478-.268-.869-1.252-.869s-1.79.391-1.79.869.564.869 1.252.869c.689 0 1.494-.391 1.79-.869zm9.126-3.477c-1.056-1.974-2.607-2.319-2.607-.579 0 1.485.844 2.318 2.348 2.318.92 0 .979-.394.259-1.738zm-88.788-3.92c.696-.696-.259-1.243-3.187-1.829-2.448-.49-2.761-.33-2.761 1.403 0 1.734.314 1.893 2.761 1.403 1.519-.304 2.953-.744 3.187-.978zm14.911-51.705c0-.478-.172-.869-.383-.869-.211 0-.625.391-.92.869-.295.478-.123.869.383.869s.92-.391.92-.869zm25.73 149.13c0-.478.368-.869.818-.869.45 0 1.06.391 1.355.869.295.478-.073.869-.818.869s-1.355-.391-1.355-.869zm72.974 2.192c-.843-1.363 1.691-1.683 3.406-.429 1.562 1.142 1.528 1.207-.637 1.207-1.258 0-2.504-.35-2.769-.778zm-125.937-11.1c-1.093-1.093-.576-1.818 2.076-2.917 3.238-1.341 5.297-.058 3.459 2.156-1.129 1.36-4.476 1.82-5.535.761zm23.331-.304c.3-.486.91-.658 1.355-.383 1.206.745.981 1.267-.546 1.267-.745 0-1.109-.397-.809-.883zm-14.639-.565c-1.096-1.096-.576-2.028 1.132-2.028 1.164 0 1.551.417 1.211 1.304-.535 1.394-1.404 1.663-2.342.724zm125.157-9.561c-.871-.871-.696-4.461.246-5.043.931-.575 2.651 2.19 2.651 4.262 0 1.369-1.819 1.86-2.897.781zm58.941-62.894c-.338-.547-.221-1.388.26-1.869 1.235-1.235 4.102-.509 4.102 1.038 0 1.563-3.498 2.229-4.362.831zm-144.278-4.346c-.882-1.427 1.911-4.076 3.073-2.914.615.615.372 1.37-.777 2.41-1.199 1.085-1.849 1.228-2.296.504zm122.298-14.814c.171-.514.683-.934 1.137-.934.454 0 .966.42 1.137.934.171.514-.34.934-1.137.934-.797 0-1.308-.42-1.137-.934zm-69.698-6.172c0-1.012 8.479-.894 9.109.127.315.51-1.378.792-4.294.716-2.648-.07-4.815-.449-4.815-.842zm-58.45-17.57c-.837-.635-1.521-1.54-1.521-2.011 0-1.57 3.197-3.786 4.655-3.226 1.665.639 1.898 3.892.386 5.404-1.291 1.291-1.619 1.276-3.52-.167zm-78.444-4.88c-.66-1.068 1.732-2.11 3.018-1.315.509.314.7.936.425 1.381-.663 1.073-2.764 1.033-3.443-.066zm2.56-6.161c-.918-1.486 1.979-3.986 3.203-2.762.545.545.756 1.604.468 2.353-.602 1.568-2.803 1.813-3.671.41zm47.854-20.776c.295-.478.928-.869 1.406-.869.478 0 .627.391.332.869s-.928.869-1.406.869c-.478 0-.627-.391-.332-.869zm7.915-2.1c.29-.757.91-1.376 1.377-1.376 1.142 0 .427 1.975-.872 2.408-.635.212-.829-.186-.505-1.032zm-4.449-2.195c.795-3.619-.741-5.971-4.111-6.297-1.855-.179-2.915-.792-3.105-1.793-.229-1.211.325-1.521 2.714-1.521 2.399 0 3.46.6 5.279 2.984 2.434 3.192 2.927 6.447 1.233 8.141-1.776 1.776-2.597 1.157-2.01-1.513zm4.28-4.829c-.829-3.304.134-4.782 3.118-4.782h2.661l-1.982 3.47c-2.307 4.04-3.048 4.296-3.797 1.312zm-55.023.507c-1.254-.794-.753-3.551.645-3.551 1.278 0 2.94 2.452 2.33 3.438-.679 1.098-1.376 1.125-2.975.112z" fill="#a5a5a5"/><path d="M198.142 183.316c-2.559-2.456.222-7.802 3.42-6.574 1.216.467 1.221.728.039 2.531-.725 1.106-1.451 2.802-1.615 3.769-.281 1.662-.383 1.677-1.843.275zm6.821-12.926c-.706-1.142 1.886-2.979 3.39-2.401 1.747.67.706 3.172-1.32 3.172-.877 0-1.808-.347-2.07-.771zm5.561-5.096c-.015-.837-.602-2.28-1.304-3.208-.702-.928-1.276-2.913-1.276-4.411 0-1.778-.75-3.429-2.159-4.752-2.147-2.017-2.178-2.02-5.631-.463-6.497 2.93-15.824.437-21.797-5.826-1.039-1.09-3.078-4.442-4.531-7.451-3.088-6.395-5.204-7.998-7.641-5.793-1.929 1.746-4.306 1.117-4.306-1.139 0-1.635-1.545-3.678-2.781-3.678-.382 0-.695 1.02-.695 2.267 0 2.037-.243 2.207-2.39 1.677-3.155-.779-4.051-1.759-4.174-4.563-.131-3.003-2.127-3.761-2.127-.808 0 1.207-.391 2.436-.869 2.731-1.522.941-.936 4.65 1.023 6.476 1.041.97 1.63 2.025 1.309 2.346-.321.321-1.343-.105-2.273-.946-1.329-1.203-2.469-1.397-5.347-.911-3.549.6-3.639.557-3.026-1.435 1.477-4.8 1.499-5.726.148-6.244-.849-.326-1.715.123-2.281 1.181-.525.98-1.816 1.706-3.035 1.706-1.271 0-2.661.823-3.467 2.052-1.203 1.835-1.733 1.981-5.018 1.38-2.44-.447-4.085-.334-4.901.338-.94.774-1.314.756-1.593-.076-.628-1.866-2.614-1.189-3.185 1.086-.579 2.308-2.139 2.806-3.748 1.197-1.362-1.362-5.96 2.011-6.686 4.904-.647 2.579-5.151 5.619-7.439 5.02-.87-.228-2.446.049-3.503.614-3.11 1.665-4.273-.342-1.753-3.024 1.712-1.822 1.892-2.51 1.108-4.231-1.081-2.373-4.386-3.152-13.433-3.167-3.204-.005-6.773-.441-7.93-.968-1.545-.704-2.595-.696-3.952.031-2.467 1.32-2.331 3.697.395 6.938 1.789 2.126 2.125 3.208 1.656 5.34-.323 1.471-1.235 2.902-2.026 3.182-.791.279-2.108 1.082-2.925 1.783-2.11 1.81-5.74.71-6.406-1.941-.292-1.163-1.463-2.725-2.603-3.472-1.14-.747-2.695-2.563-3.457-4.036-1.288-2.49-1.275-2.8.181-4.409 1.556-1.72 1.577-1.716 3.409.582 1.713 2.149 1.945 2.211 3.278.878.789-.789 1.434-2.575 1.434-3.968 0-2.041-.719-2.982-3.694-4.835-2.032-1.265-4.979-3.681-6.549-5.369-2.173-2.334-3.098-2.826-3.868-2.056-1.528 1.528-2.567 1.213-1.682-.509.43-.837.588-2.108.35-2.825-.589-1.776-7.94-12.883-8.931-13.495-.457-.282-.341-1.236.273-2.238.895-1.463.822-1.887-.452-2.61-.939-.534-1.521-1.902-1.521-3.577 0-1.492-.641-3.421-1.424-4.286-1.22-1.348-1.252-1.78-.224-3.019 1.078-1.299.981-1.38-.966-.798-2.949.882-4.339 2.873-4.339 6.217 0 4.067.745 5.445 3.799 7.028l2.719 1.409-3.042 1.1c-1.673.605-3.345 1.13-3.715 1.166-.966.095-2.484-4.26-2.553-7.322-.032-1.434-.707-3.585-1.501-4.78-2.737-4.124-3.327-6.478-2.684-10.711.346-2.282 1.08-4.6 1.63-5.15.55-.55 1-1.943 1-3.095 0-1.878.312-2.058 3.012-1.742 2.697.315 3.067.102 3.536-2.035.639-2.907-.353-10.123-1.487-10.824-.452-.28-1.198-1.496-1.657-2.702-1.027-2.702.445-4.865 2.802-4.117 1.048.333 1.616.087 1.616-.701 0-.667 1.184-3 2.63-5.184 1.897-2.865 2.822-5.567 3.32-9.698.379-3.15.974-6.011 1.322-6.36 1.058-1.058 3.585 1.107 3.694 3.164.168 3.176 2.531 4.782 7.075 4.808 3.534.021 4.122.272 4.122 1.762 0 1.784 3.499 4.268 4.842 3.438.413-.255.52-1.614.239-3.019-.442-2.21-.183-2.68 1.917-3.478 3.213-1.221 4.461-.628 5.902 2.808 1.471 3.507 1.157 4.162-1.994 4.162-1.444 0-2.681.569-2.991 1.375-.8 2.084-.631 4.709.302 4.709.456 0 1.095 1.467 1.418 3.259.324 1.793.963 3.984 1.421 4.869.67 1.295.265 2.089-2.07 4.057-2.43 2.048-2.666 2.54-1.45 3.02.799.315 2.266.138 3.259-.393 1.254-.671 2.315-.695 3.469-.077 2.304 1.233 2.643 2.689 1.263 5.423-.754 1.493-.868 2.535-.315 2.876.476.294.866 1.319.866 2.278 0 1.437-.486 1.695-2.776 1.47-2.522-.248-2.831-.009-3.38 2.616-.444 2.121-.275 3.015.635 3.365 2.384.915 3.696 5.768 2.634 9.747-.735 2.753-.713 4.027.091 5.315.582.931 1.058 2.653 1.058 3.827 0 4.257 6.239 5.847 26.074 6.645 4.934.199 15.05-1.449 18.74-3.052 7.015-3.048 10.834-5.276 11.242-6.559.613-1.932 3.752-3.641 8.692-4.733 4.317-.954 4.351-.989 4.616-4.639.259-3.561.363-3.678 3.259-3.678 3.571 0 6.469 2.531 6.469 5.649 0 2.57-.163 2.546 5.219.785 3.134-1.025 4.312-1.877 4.509-3.259.356-2.496 5.344-3.094 7.738-.927 1.573 1.424 1.933 1.419 6.921-.091 3.688-1.117 5.785-2.327 7.01-4.048.961-1.35 2.385-2.455 3.163-2.455s2.828-.979 4.554-2.175l3.139-2.175 4.296 2.049c4.468 2.131 12.508 3.483 15.706 2.641 1.017-.268 2.294-1.462 2.837-2.655 1.309-2.872 3.005-2.167 3.646 1.517.778 4.477 5.839 13.686 8.452 15.381 1.269.823 2.998 2.181 3.843 3.017 2.144 2.124 3.026 1.914 4.58-1.092 1.231-2.38 1.718-2.602 5.454-2.489 4.11.124 7.145 1.778 7.145 3.893 0 2.14-2.006 5.524-3.569 6.019-1.3.413-1.409.844-.639 2.533 1.502 3.298 5.632 5.924 7.631 4.854 2.443-1.308 2.661-1.168 2.661 1.71 0 2.202.338 2.607 2.173 2.607 1.352 0 2.173.493 2.173 1.304 0 .717-.391 1.304-.869 1.304s-.869.727-.869 1.615c0 1.665-7.433 6.173-10.293 6.242-.976.024-.707.434.835 1.272 1.252.68 2.935 2.626 3.741 4.324 1.435 3.024 1.417 3.176-.88 7.397-1.86 3.418-2.132 4.567-1.313 5.553.613.738.792 2.2.442 3.596-.523 2.084-.387 2.288 1.193 1.786.981-.311 2.028-.171 2.327.313.299.483-.479 1.136-1.728 1.449-1.805.453-2.847.012-5.074-2.147-3.654-3.542-4.727-3.427-5.073.542l-.284 3.259-1.724-2.85c-1.403-2.32-2.197-2.805-4.269-2.607-2.03.194-2.928 1.007-4.441 4.021-1.427 2.843-2.841 4.202-5.712 5.49-3.634 1.629-4.733 1.66-9.248.261-1.603-.497-1.956-.274-1.956 1.234 0 2.199-1.726 2.511-1.766.319zm13.582-6.417c1.839-2.059 2.268-2.026-3.879-.297-.893.251-2.707.045-4.032-.459-2.973-1.13-4.061-.289-1.782 1.377 2.591 1.895 7.741 1.565 9.693-.621zm-11.816-3.689c0-.659-.548-1.652-1.218-2.208-.67-.556-1.46-1.973-1.755-3.148-.577-2.297-2.242-2.953-2.242-.883 0 1.668 3.438 7.437 4.432 7.437.431 0 .783-.539.783-1.197zm12.643-4.323c2.007-1.839 3.066-3.521 2.873-4.563-.37-1.994-5.608-4.695-10.333-5.329-3.22-.432-3.444-.32-3.444 1.717 0 1.198-.234 3.35-.52 4.781-.403 2.015-.072 3.02 1.468 4.454 2.906 2.708 6.231 2.354 9.957-1.06zm-24.631-7.824c3.716-4.157 3.765-4.316 1.901-6.18-1.078-1.078-1.672-1.167-2.607-.39-.666.553-1.212 1.534-1.212 2.181 0 1.547-4.828 4.006-7.193 3.663-1.023-.149-2.932-1.834-4.242-3.747-1.88-2.744-2.436-4.666-2.644-9.126l-.263-5.649 3.477.277 3.477.277-3.698-3.44c-2.034-1.892-4.288-4.852-5.009-6.578-1.423-3.406-2.252-3.815-3.844-1.898-1.148 1.383.407 5.306 2.933 7.403 1.775 1.473 1.722 2.23-.482 6.782-2.146 4.432-1.9 7.465 1.116 13.783 1.729 3.621 2.441 4.293 4.79 4.521 1.518.147 3.243.849 3.832 1.56 1.767 2.13 6.053.606 9.667-3.437zm41.539-.155c0-1.401-2.313-2.729-3.203-1.839-.619.619 1.345 3.17 2.441 3.17.419 0 .763-.599.763-1.331zm-39.981-10.674c0-1.699-4.872-6.879-5.696-6.055-.573.573 4.058 7.548 5.044 7.598.359.018.652-.676.652-1.543zm-107.339-3.639c.295-.478 2.166-.869 4.156-.869 3.59 0 3.603-.011 1.6-1.414-1.748-1.224-2.475-1.263-5.424-.29-3.077 1.016-3.52.967-4.594-.501-.955-1.306-1.578-1.451-3.174-.739-1.162.518-3.277.604-5.097.206-12.957-2.83-15.395-3.56-17.025-5.091-1.013-.952-2.254-1.731-2.758-1.731-1.102 0-5.286-6.066-7.47-10.832-.868-1.894-1.987-6.392-2.486-9.995-.499-3.603-1.213-7.15-1.587-7.883-.374-.733-.96-2.604-1.301-4.158-.341-1.554-1.564-3.444-2.718-4.2-2.287-1.498-2.756-2.913-.966-2.913.847 0 1.177-2.346 1.314-9.343.101-5.139.64-11.19 1.2-13.446.9-3.634.834-4.305-.579-5.867-3.689-4.077-5.534-.971-5.743 9.669-.425 21.624-.358 22.218 3.39 30.131 1.121 2.367 1.171 3.201.275 4.635-.893 1.43-.859 2.104.186 3.699.703 1.073 1.864 3.876 2.58 6.229 3.04 9.992 6.542 15.062 13.576 19.658 3.977 2.599 5.891 3.319 8.464 3.183 1.828-.096 5.746.296 8.706.873 2.96.576 6.354.803 7.542.505 1.188-.298 2.873-.128 3.744.379 2.017 1.173 3.508 1.21 4.191.105zm125.591 0c0-.478-.414-.869-.92-.869s-.679.391-.383.869c.295.478.71.869.92.869.211 0 .383-.391.383-.869zm-105.601-4.095c2.39-.733 4.717-1.676 5.171-2.096.454-.419 1.665-.762 2.69-.762s2.572-.782 3.437-1.738c1.727-1.909 3.925-2.246 5.351-.82.645.645 1.726.238 3.633-1.366 1.493-1.256 3.119-2.034 3.613-1.729.494.305 2.053-.021 3.465-.725s4.142-1.547 6.068-1.872c1.926-.325 3.732-.965 4.014-1.42.282-.456 1.228-.602 2.104-.324.981.311 2.036-.098 2.752-1.067.906-1.227 2.454-1.595 7.051-1.674 4.455-.077 6.997-.653 10.43-2.361 4.194-2.087 4.622-2.148 5.629-.798 1.297 1.74 3.361.304 2.561-1.782-.362-.943-1.595-1.204-4.678-.991-4.356.301-9.809 1.498-11.454 2.514-.524.324-3.225.756-6.001.961-2.776.205-9.14 1.777-14.142 3.494-5.002 1.717-10.592 3.441-12.423 3.83-1.831.389-3.767 1.146-4.302 1.681-.535.535-1.91.973-3.055.973-2.178 0-7.131 2.517-7.131 3.623 0 .353-1.662.596-3.694.541-3.356-.091-7.984 1.22-10.906 3.09-.865.554-.893 1.006-.118 1.94 1.082 1.304 2.586 1.134 9.938-1.122zm32.158 1.488c.295-.478-.268-.869-1.252-.869s-1.79.391-1.79.869.564.869 1.252.869c.689 0 1.494-.391 1.79-.869zm70.636-7.116c-.537-1.612-2.408-1.879-2.408-.344 0 .757.619 1.376 1.376 1.376.757 0 1.221-.464 1.032-1.032zm-7.623-.619c0-.43-1.956-1.485-4.346-2.345-2.39-.859-4.346-2.072-4.346-2.695 0-1.495-1.554-1.44-3.104.11-1.818 1.818-1.613 2.151 2.452 3.997 3.839 1.743 9.343 2.292 9.343.933zm-18.781-6.539c-.511-1.332-2.92-2.557-3.63-1.847-.672.672 1.622 3.083 2.935 3.083.655 0 .961-.545.696-1.237zm23.996-7.604c0-1.213-2.567-4.197-3.611-4.197-1.103 0-.883 2.98.309 4.172 1.334 1.334 3.303 1.349 3.303.025zm-25.295-6.261c.677-.816 2.188-1.06 4.759-.77 4.002.451 7.932-.976 6.97-2.532-.728-1.177-10.975-.225-13.656 1.268-1.042.581-2.032 1.128-2.199 1.215-.167.088-.046.577.269 1.086.796 1.288 2.673 1.158 3.857-.268zm-125.08-3.368c.007-.837-.378-1.521-.856-1.521s-.863 1.271-.856 2.825c.01 2.143.216 2.51.856 1.521.463-.717.849-1.988.856-2.825zm32.938 64.751c-.057-.359-.084-.863-.061-1.122.023-.259-1.201-.334-2.722-.167-2.343.257-2.996-.113-4.285-2.425-.837-1.5-1.521-3.087-1.521-3.527 0-1.526 3.934-.789 5.013.94 1.525 2.442 3.256 2.165 5.417-.869 1.127-1.583 2.63-2.607 3.825-2.607 2.769 0 3.267.811 1.791 2.918-.832 1.188-1.09 2.81-.742 4.666.533 2.839.526 2.845-3.04 2.845-1.965 0-3.62-.293-3.676-.652zm28.072-3.275c-5.359-1.307-7.665-3.093-8.418-6.52-.986-4.489 3.285-8.706 4.795-4.734 1.029 2.706 4.422 7.359 5.367 7.359 1.202 0 4.182-3.406 4.182-4.78 0-.816-.824-1.304-2.2-1.304-3.058 0-3.521-2.018-1.29-5.627 1.735-2.808 4.359-4.173 4.359-2.269 0 .438 1.152 1.883 2.559 3.211 2.481 2.342 2.508 2.452.869 3.6-2.221 1.555-2.137 2.708.265 3.634 1.738.67 1.786.823.435 1.369-.837.338-1.521 1.107-1.521 1.708 0 1.283-3.333 5.718-4.192 5.578-.324-.053-2.669-.603-5.212-1.224zm5.927-15.194c0-.478-.61-.869-1.355-.869s-1.113.391-.818.869c.295.478.905.869 1.355.869.45 0 .818-.391.818-.869zm18.035 11.647c-3.34-1.027-4.128-1.646-4.128-3.242 0-3.539 4.389-5.726 5.529-2.755.275.717 1.362 1.304 2.415 1.304 2.934 0 5.234 2.459 4.166 4.455-1.024 1.913-2.4 1.954-7.981.238zm-74.261-6.318c-1.243-1.999-.684-2.721 2.11-2.721 1.666 0 2.032.394 1.811 1.947-.355 2.491-2.579 2.931-3.92.774zm35.366-5.401c0-2.118 2.031-1.819 2.454.362.166.858-.277 1.449-1.086 1.449-.806 0-1.367-.743-1.367-1.811zm46.934-5.194c0-.984.391-1.548.869-1.252.478.295.869 1.101.869 1.79 0 .689-.391 1.252-.869 1.252s-.869-.805-.869-1.79zm-56.929-28.63c-.295-.478.096-.869.869-.869s1.165.391.869.869c-.295.478-.687.869-.869.869-.183 0-.574-.391-.869-.869zm-24.979-11.713c-.509-2.664-.13-3.062 2.91-3.062 3.262 0 3.816 1.267 1.5 3.425-2.545 2.371-3.909 2.259-4.41-.362zm-4.354-4.001c-3.169-1.846-1.373-5.145 2.802-5.145 1.619 0 3.142 3.685 2.171 5.255-.662 1.07-3.037 1.018-4.973-.11zm75.772-3.045c-1.325-1.597-.195-4.1 2.051-4.543 1.601-.315 3.573 2.888 2.884 4.683-.634 1.653-3.514 1.571-4.935-.141zm9.976-4.282c-.787-3.135.538-4.25 3.464-2.917 3.147 1.434 2.812 4.551-.529 4.936-1.929.222-2.465-.146-2.935-2.019zm-81.185-1.295c0-2.332.284-2.688 1.956-2.451 1.432.203 1.956.859 1.956 2.451s-.523 2.247-1.956 2.451c-1.672.237-1.956-.118-1.956-2.451zm142.909-1.254c-.997-3.974 1.611-5.316 4.382-2.255 1.977 2.185 1.143 4.378-1.665 4.378-1.591 0-2.328-.577-2.717-2.123zm-197.665-7.063c0-.906.634-1.271 1.887-1.086 2.783.409 3.081 2.451.358 2.451-1.461 0-2.245-.477-2.245-1.364zm190.017-.837c-.759-1.978-.79-1.95 1.665-1.481 1.215.232 2.063.862 1.884 1.4-.523 1.571-2.956 1.627-3.549.081zm-107.061-17.865c-.896-1.449 1.119-3.111 2.318-1.912 1.003 1.003.375 2.857-.967 2.857-.422 0-1.029-.425-1.351-.945zm-38.63-17.69c0-1.403 1.231-2.442 1.992-1.681.678.678-.256 2.933-1.216 2.933-.427 0-.776-.564-.776-1.252zm18.252-25.256c0-.85.833-1.294 2.39-1.276 2.289.026 2.319.081.703 1.304-2.15 1.626-3.093 1.618-3.093-.028z" fill="#7b7b7b"/><path d="M215.114 156.678c-.598-.241-1.086-1.034-1.086-1.763 0-.925.458-1.132 1.521-.685 4.667 1.962 8.217.978 12.319-3.413 2.319-2.482 4.546-2.884 6.036-1.089 1.33 1.603.364 2.31-3.154 2.31-2.121 0-3.095.444-3.382 1.542-.633 2.422-8.807 4.488-12.254 3.097zm-29.855-6.37c-4.334-2.291-8.372-7.148-11.222-13.5-2.521-5.618-4.809-7.236-7.896-5.584-2.044 1.094-3.393 1.043-3.393-.128 0-.524-.809-2.088-1.797-3.477-1.501-2.108-1.573-2.524-.435-2.524 2.136 0 1.596-2.222-.807-3.317-1.507-.687-2.869-.723-4.461-.117-1.26.479-3.002.645-3.872.369-2.65-.841-8.75 1.317-12.569 4.447-1.989 1.63-4.049 2.964-4.578 2.964-.529 0-1.917 1.031-3.085 2.29-1.748 1.885-2.562 2.173-4.598 1.63-4.134-1.104-9.198-.786-13.773.865-5.584 2.015-6.394 2.69-7.978 6.649-.721 1.802-2.075 3.518-3.009 3.815-2.018.641-4.223-.953-4.223-3.053 0-4.06-4.794-5.187-27.125-6.382-2.939-.157-5.597-.823-6.519-1.633-.856-.752-2.48-1.65-3.608-1.994-5.935-1.812-20.2-20.408-18.685-24.357.316-.822-.257-2.507-1.359-3.997-2.161-2.923-1.793-5.602.887-6.452 2.428-.771 4.053.879 5.479 5.564 2.41 7.917 5.817 14.185 9.96 18.329 5.198 5.198 8.648 7.03 13.879 7.373 2.232.146 8.533.692 14.003 1.212 6.922.659 10.278.671 11.04.038.602-.5 1.899-.653 2.882-.341 2.257.716 10.089-.882 17.418-3.555 3.107-1.133 8.387-2.815 11.733-3.736 3.346-.922 9.408-2.83 13.472-4.241 4.063-1.411 9.148-3.078 11.299-3.705 2.151-.627 4.498-1.608 5.215-2.179.717-.572 3.815-1.311 6.884-1.644 3.069-.333 7.436-1.31 9.703-2.171 3.545-1.347 4.294-1.395 5.347-.343 2.588 2.588 6.377-1.794 4.014-4.642-.918-1.106-2.347-1.281-7.358-.902-3.421.259-7.419 1.091-8.885 1.849-1.466.758-4.04 1.378-5.72 1.378-1.68 0-4.731.54-6.779 1.199-2.048.66-7.831 2.462-12.85 4.005-5.019 1.543-10.495 3.307-12.168 3.918-1.673.612-5.975 1.964-9.561 3.005-3.585 1.041-7.692 2.287-9.126 2.767-1.434.48-4.954 1.44-7.822 2.132-2.868.692-6.358 1.634-7.756 2.092-1.739.571-2.908.529-3.705-.133-.641-.532-4.386-1.047-8.323-1.145-9.058-.226-14.893-1.598-19.047-4.477-5.917-4.101-10.787-13.945-11.771-23.794-.263-2.629-.77-5.171-1.128-5.649-.358-.478-.938-2.238-1.288-3.911-.35-1.673-.878-3.433-1.173-3.911-1.308-2.12-1.29-19.246.027-25.379.828-3.857.758-4.844-.482-6.736-.799-1.219-2.216-2.216-3.151-2.216-3.284 0-4.159 3.19-4.805 17.524-.6 13.304-.559 13.784 1.791 21.163 2.005 6.296 2.202 7.678 1.188 8.32-1.974 1.25-3.197.928-5.369-1.415-1.778-1.918-2.367-2.091-4.437-1.304-3.127 1.189-3.143 1.185-3.143-.779 0-2.693-1.453-2.861-3.395-.392-1.487 1.89-1.887 2.045-2.327.899-.851-2.217 2.904-7.512 5.328-7.512 3.307 0 4.173-2.777 3.605-11.555-.338-5.218-.945-8.241-1.856-9.248-1.8-1.989-1.71-2.489.51-2.82 1.357-.202 2.166-1.302 2.971-4.042.609-2.07 1.652-4.417 2.318-5.215.666-.798 1.948-3.21 2.849-5.362.901-2.151 1.76-4.078 1.91-4.282.15-.204 1.344.599 2.654 1.784 3.629 3.285 9.261 6.844 10.831 6.844 2.875 0 4.153 1.082 4.153 3.518 0 1.355.391 2.705.869 3 1.361.841 1.021 3.168-.652 4.456-1.424 1.096-1.383 1.279.626 2.851l2.147 1.68-2.785 1.59c-5.637 3.219-4.506 5.575 2.757 5.745l4.92.115-.556 2.645c-.306 1.455-1.492 3.645-2.637 4.866-1.145 1.221-2.081 2.559-2.081 2.974 0 .414-.681 1.506-1.513 2.425-1.446 1.598-1.426 1.743.453 3.265 1.15.932 1.598 1.82 1.079 2.141-.969.599-1.253 9.138-.304 9.138.321 0 1.354-.684 2.296-1.521 1.675-1.488 1.7-1.454 1.149 1.562-.404 2.209-.073 4.099 1.168 6.666 2.637 5.458 9.144 8.28 20.01 8.678 9.939.364 20.595-.982 26.509-3.349 2.39-.957 6.201-2.311 8.468-3.009 2.917-.898 4.489-1.978 5.375-3.691 2.023-3.912 3.096-4.307 12.231-4.502 11.189-.239 21.096-2.809 22.22-5.765.946-2.488 1.48-2.515 3.942-.202 1.876 1.762 2.089 1.776 6.575.442 5.407-1.608 5.934-1.942 7.866-4.982.968-1.523 2.554-2.49 4.76-2.902 1.82-.34 3.7-.932 4.178-1.316.478-.384 2.825-.366 5.215.04 2.39.406 7.084 1.195 10.43 1.755 8.467 1.416 10.907 2.62 13.906 6.864 5.254 7.433 8.686 10.642 14.534 13.586 4.404 2.218 6.293 3.729 7.3 5.84.747 1.566 2.529 3.609 3.96 4.539 1.431.931 2.95 2.572 3.376 3.648.425 1.076 1.37 1.956 2.099 1.956.729 0 1.325.214 1.325.476 0 1.191-4.971 4.907-7.145 5.342-3.025.605-3.1 2.214-.176 3.778 2.244 1.201 4.354 4.089 3.564 4.879-.231.231-1.231-.086-2.222-.705-1.421-.888-2.026-.9-2.866-.06-.586.586-2.062 1.071-3.281 1.078-1.219.007-2.725.336-3.347.731-1.741 1.104.403 5.017 3.951 7.21 2.096 1.296 2.686 2.097 2.028 2.755-1.511 1.511-5.565-.397-6.149-2.895-.375-1.605-1.172-2.241-3.079-2.459-1.415-.162-2.964-.591-3.442-.953-.478-.362-4.073-1.568-7.99-2.678-8.903-2.525-9.645-2.109-9.337 5.223.253 6.009-.914 6.989-1.819 1.527-1.224-7.386-3.887-8.831-3.887-2.108 0 3.59-.076 3.683-4.245 5.164-5.584 1.983-12.707 1.888-16.701-.223zm13.307-3.987c.616-.754 2.21-2.587 3.542-4.073 1.563-1.743 2.204-3.183 1.81-4.061-.336-.748-.678-2.728-.759-4.402-.162-3.329-4.395-8.691-6.862-8.691-1.531 0-1.901 2.189-.514 3.046.481.298 1.44 1.633 2.13 2.967 1.884 3.643.268 8.172-3.388 9.494-4.023 1.455-4.366 1.342-6.833-2.253-1.657-2.414-2.307-4.603-2.508-8.44l-.271-5.181 3.694.25c4.585.31 4.721-.866.435-3.756-1.793-1.209-4.275-4.058-5.516-6.333-2.51-4.599-4.53-5.578-5.968-2.892-1.044 1.95.364 5.687 2.952 7.835 1.663 1.38 1.697 2.425.174 5.343-2.296 4.401-2.442 8.16-.505 13.084 2.319 5.897 3.952 7.694 6.99 7.694 1.332 0 2.663.391 2.959.869.869 1.406 7.188 1.03 8.44-.502zm30.889-13.911c-.828-.828-2.489.513-1.872 1.512.367.594.853.579 1.477-.046.512-.512.689-1.172.394-1.466zm6.954-1.883c.475-1.427-2.248-2.446-3.416-1.278-.5.5-.633 1.356-.295 1.902.768 1.243 3.227.829 3.711-.624zm-13.689.154c0-.273-.989-2.185-2.199-4.249-1.764-3.009-2.09-4.434-1.647-7.2.497-3.107.349-3.503-1.495-3.996-3.589-.961-4.219-.661-4.219 2.005 0 1.687.6 2.898 1.738 3.507 1.249.668 1.738 1.82 1.738 4.091 0 3.495 2.01 6.339 4.48 6.339.882 0 1.604-.224 1.604-.497zm13.574-6.843c.634-1.653-3.782-7.128-6.737-8.352-2.912-1.206-6.402-.77-6.402.801 0 .653 1.76 1.838 3.911 2.632 2.579.953 4.297 2.25 5.045 3.81 1.225 2.556 3.406 3.134 4.183 1.109zm-25.102-5.428c.187-.569-.956-1.69-2.54-2.49-1.584-.8-3.815-2.616-4.957-4.036-1.789-2.224-2.478-2.506-4.975-2.038-1.887.354-3.588.1-4.877-.728-1.088-.699-3.347-1.4-5.021-1.556-2.52-.236-3.086.022-3.298 1.502-.141.982.446 2.407 1.304 3.165 1.27 1.123 9.638 4.854 15.9 7.09 2.25.803 8.106.175 8.462-.908zm7.007-8.669c.143-.96-.346-2.249-1.086-2.863-.74-.614-1.346-1.794-1.346-2.622 0-1.373-1.233-2.878-5.891-7.191-.903-.837-1.942-1.521-2.308-1.521-.366 0-2.016-.641-3.668-1.425-4.733-2.246-17.284-.513-19.635 2.711-.356.488.188 1.58 1.208 2.428 1.683 1.399 2.041 1.419 3.876.217 2.403-1.574 11.236-1.776 15.948-.364 2.098.629 3.555 1.754 4.222 3.259 1.719 3.881 6.364 9.793 7.42 9.445.55-.181 1.116-1.115 1.259-2.075zm-154.218 38.386c-.712-1.857.264-3.911 1.859-3.911 1.843 0 2.613 2.334 1.295 3.922-1.369 1.649-2.517 1.645-3.153-.011zm180.536-2.68c.042-1.013.248-1.218.525-.525.251.627.22 1.377-.069 1.666-.289.289-.494-.225-.456-1.141zm-100.02-15.031c0-.419.587-1.25 1.304-1.845 1.415-1.174 1.592-.894.776 1.233-.558 1.455-2.08 1.903-2.08.612zm93.39-24.801c-1.622-1.186-1.6-1.263.648-2.287 2.893-1.318 5.044-.572 5.044 1.749 0 2.125-3.119 2.42-5.692.538zm-94.549-9.782c-1.102-1.102-.573-2.028 1.159-2.028.966 0 1.738.579 1.738 1.304 0 1.323-1.839 1.783-2.897.724zm-77.933-1.593c0-.717.391-1.304.869-1.304s.869.587.869 1.304c0 .717-.391 1.304-.869 1.304s-.869-.587-.869-1.304z" fill="#292929"/><path d="M194.905 149.48c1.781-.461 4.121-2.074 5.649-3.894 3.071-3.657 4.782-3.976 4.782-.89 0 1.74-.702 2.512-3.259 3.584-1.793.752-4.824 1.506-6.736 1.677l-3.477.31 3.04-.786zm-8.218-.858c-.275-.445-.103-1.055.383-1.355 1.037-.641 2.622.173 2.622 1.346 0 1.058-2.352 1.064-3.005.009zm-7.177-5.492c-.459-.598-2.9-5.389-5.424-10.647-2.525-5.258-5.033-9.845-5.574-10.193-.541-.348-1.701-.408-2.578-.135-.941.293-2.367-.201-3.477-1.204-1.035-.935-2.804-1.924-3.93-2.198-3.235-.786-15.821 1.751-17.869 3.601-3.519 3.178-13.595 7.452-16.992 7.207-2.944-.213-5.469.521-19.89 5.782-4.105 1.497-5.088 1.565-8.362.58-2.04-.614-7.87-1.353-12.955-1.643-12.791-.728-22.029-3.678-26.926-8.599-5.675-5.702-11.13-14.292-11.638-18.325-.246-1.955-1.03-4.225-1.742-5.044-.728-.837-1.044-2.141-.723-2.979.853-2.223 2.576-.043 4.383 5.544.81 2.504 1.834 4.776 2.275 5.049.441.273.803 1.168.803 1.989 0 1.798 5.86 9.771 9.28 12.625 3.97 3.313 7.314 4.628 13.318 5.235 18.762 1.897 22.188 2.088 23.629 1.317.848-.454 2.462-.594 3.587-.311 2.404.603 14.635-2.287 20.32-4.802 2.181-.965 4.795-1.756 5.81-1.758 1.015-.003 4.974-1.225 8.798-2.716 3.824-1.492 9.999-3.443 13.722-4.336 3.723-.893 8.025-2.285 9.561-3.093 1.535-.808 5.921-2.196 9.745-3.084 3.824-.888 7.897-1.852 9.051-2.141 1.804-.453 2.001-.295 1.409 1.123-1.644 3.938-1.499 5.615.737 8.547 2.635 3.455 2.804 4.958.889 7.882-1.72 2.625-1.32 9.847.806 14.555 1.492 3.304 1.476 4.149-.042 2.173zm-8.939-24.553c0-.717-.368-1.304-.818-1.304-1.096 0-1.881 1.357-1.187 2.052.979.979 2.004.596 2.004-.748zm57.363 22.099c-1.673-.359-4.606-1.256-6.519-1.994-3.999-1.544-8.776-1.818-9.561-.549-.295.478-1.837.869-3.427.869-3.105 0-3.925-1.33-3.949-6.403-.015-3.211-6.294-9.62-8.786-8.968-.91.238-1.655.088-1.655-.333 0-.421-1.084-1.326-2.408-2.011-3.216-1.663-6.852-5.378-7.431-7.594-.429-1.639-.341-1.679 1.005-.46 2.847 2.576 17.74 7.718 23.065 7.963 5.455.251 6.592 1.08 6.615 4.823.016 2.718 3.363 5.967 8.762 8.508 4.69 2.207 6.304 2.324 7.765.564.595-.717 1.964-1.304 3.042-1.304 2.998 0 3.814-1.719 3.601-7.592-.157-4.354-.602-5.816-2.332-7.668-3.04-3.254-6.384-4.781-11.061-5.053-3.96-.23-4.084-.324-4.957-3.756-.493-1.936-1.337-4.059-1.876-4.718-.539-.659-1.224-1.996-1.521-2.97-.718-2.352-7.181-7.661-10.883-8.941-1.625-.562-5.782-1.021-9.237-1.021-9.632 0-15.223 3.042-12.78 6.954.867 1.388.317 1.518-6.863 1.618-4.293.06-8.664.568-9.714 1.13-1.049.562-4.255 1.511-7.123 2.11-2.868.599-6.975 1.68-9.127 2.403-2.151.723-7.431 2.36-11.733 3.637-4.302 1.278-8.996 2.828-10.43 3.444-1.434.617-4.367 1.386-6.519 1.709-2.151.323-6.453 1.507-9.561 2.632-10.709 3.876-16.891 4.766-26.952 3.882-12.787-1.124-18.296-2.304-20.176-4.322-.887-.952-1.936-1.73-2.332-1.73-1.357 0-5.241-6.832-6.265-11.021-.563-2.304-1.553-5.245-2.201-6.536-.647-1.291-1.177-3.853-1.177-5.693 0-1.84-.328-3.717-.729-4.172-1.451-1.643-3.181-11.399-3.152-17.774.049-10.678 1.256-19.99 2.59-19.99.642 0 2.407 1.835 3.921 4.079 2.452 3.632 2.601 4.19 1.365 5.093-1.78 1.301-1.784 3.527-.008 4.208 1.187.455 1.096.866-.652 2.945-2.79 3.318-2.93 10.055-.217 10.443.998.143 2.317-.346 2.931-1.086.614-.74 1.656-1.346 2.314-1.346 1.98 0 1.357 2.955-1.386 6.581-2.896 3.828-3.255 6.065-1.314 8.21.725.801 1.461 3.504 1.636 6.007.175 2.503.756 4.988 1.29 5.522.534.534.985 1.773 1.002 2.753.074 4.304 4.354 8.275 13.524 12.548 2.972 1.385 5.276 1.627 13.957 1.467 5.719-.106 10.797-.439 11.285-.74.488-.302 3.594-.979 6.902-1.505 3.308-.526 7.309-1.718 8.889-2.648 1.581-.93 3.477-1.691 4.214-1.691 2.767 0 7.556-3.023 9.198-5.806l1.702-2.885h9.288c8.95 0 16.076-1.471 21.189-4.373.842-.478 2.487-.63 3.654-.337 3.328.835 13.451-2.868 14.358-5.252 1.693-4.453 12.314-5.481 25.895-2.507l6.327 1.385 6.305 7.497c4.826 5.739 7.584 8.177 11.757 10.396 3.104 1.65 5.766 3.724 6.181 4.816.401 1.054 1.379 2.457 2.173 3.116 1.553 1.289 3.951 6.41 3.951 8.438 0 .681-1.006 2.171-2.235 3.311-1.948 1.805-2.101 2.323-1.188 4.029.904 1.689.78 2.173-.903 3.536-1.073.869-2.837 1.579-3.921 1.579-1.084 0-2.507.719-3.163 1.598-.955 1.28-1.798 1.468-4.234.946zm-38.456-2.326c-1.487-1.673-3.251-7.34-3.258-10.469-.004-1.832.262-1.946 3.254-1.402 3.366.612 7.936 4.787 8.004 7.311.038 1.388-4.466 6.081-5.836 6.081-.447 0-1.421-.684-2.165-1.521zm33.753-11.583c-1.238-1.471-2.25-3.622-2.25-4.78 0-3.171 4.533-2.921 7.889.434 3.048 3.048 3.139 3.895.609 5.667-2.734 1.915-3.696 1.712-6.248-1.321zm-18.497-16.35c-3.845-3.745-7.977-5.817-10.354-5.19-1.775.468-8.164-1.222-8.164-2.159 0-1.321 6.017-3.183 10.199-3.156 8.259.052 11.216 1.868 15.057 9.247 3.535 6.79-.319 7.51-6.737 1.258zm-165.637-20.087c-.819-.956-2.48-1.738-3.692-1.738-2.201 0-2.202-.003-.759-2.793 1.198-2.318 1.367-4.582.991-13.295-.352-8.142-.183-10.871.751-12.148.662-.906 1.21-2.452 1.218-3.436.007-.984.421-2.376.919-3.093.637-.917.738 1.788.341 9.126-.583 10.764.277 18.797 2.675 25.005.696 1.802 1.266 3.465 1.266 3.694 0 1.08-2.379.233-3.709-1.321z" fill="#101010"/></g></svg>